<?xml version="1.0" encoding="UTF-8" standalone="no"?>
<!DOCTYPE svg PUBLIC "-//W3C//DTD SVG 1.1//EN"
 "http://www.w3.org/Graphics/SVG/1.1/DTD/svg11.dtd">
<!-- Generated by graphviz version 2.40.1 (20161225.0304)
 -->
<!-- Title: models_diagram Pages: 1 -->
<svg width="468pt" height="385pt"
 viewBox="0.00 0.00 468.32 385.00" xmlns="http://www.w3.org/2000/svg" xmlns:xlink="http://www.w3.org/1999/xlink">
<g id="graph0" class="graph" transform="scale(1 1) rotate(0) translate(4 381)">
<title>models_diagram</title>
<polygon fill="transparent" stroke="transparent" points="-4,4 -4,-381 464.3208,-381 464.3208,4 -4,4"/>
<!-- _diagram_info -->
<g id="node1" class="node">
<title>_diagram_info</title>
<text text-anchor="start" x="8" y="-362.6" font-family="Times,serif" font-size="13.00" fill="#000000">Models diagram</text>
<text text-anchor="start" x="8" y="-349.6" font-family="Times,serif" font-size="13.00" fill="#000000">Date: Jun 09 2017 &#45; 08:46</text>
<text text-anchor="start" x="8" y="-336.6" font-family="Times,serif" font-size="13.00" fill="#000000">Migration version: 20170608115929</text>
<text text-anchor="start" x="8" y="-323.6" font-family="Times,serif" font-size="13.00" fill="#000000">Generated by RailRoady 1.5.3</text>
<text text-anchor="start" x="8" y="-310.6" font-family="Times,serif" font-size="13.00" fill="#000000">http://railroady.prestonlee.com</text>
</g>
<!-- ApplicationRecord -->
<g id="node2" class="node">
<title>ApplicationRecord</title>
<ellipse fill="none" stroke="#000000" cx="302.4497" cy="-340.5" rx="77.2916" ry="18"/>
<text text-anchor="middle" x="302.4497" y="-336.3" font-family="Times,serif" font-size="14.00" fill="#000000">ApplicationRecord</text>
</g>
<!-- KnowledgeMap -->
<g id="node3" class="node">
<title>KnowledgeMap</title>
<path fill="none" stroke="#000000" d="M182.9443,-166.5C182.9443,-166.5 291.9551,-166.5 291.9551,-166.5 297.9551,-166.5 303.9551,-172.5 303.9551,-178.5 303.9551,-178.5 303.9551,-254.5 303.9551,-254.5 303.9551,-260.5 297.9551,-266.5 291.9551,-266.5 291.9551,-266.5 182.9443,-266.5 182.9443,-266.5 176.9443,-266.5 170.9443,-260.5 170.9443,-254.5 170.9443,-254.5 170.9443,-178.5 170.9443,-178.5 170.9443,-172.5 176.9443,-166.5 182.9443,-166.5"/>
<text text-anchor="middle" x="237.4497" y="-251.3" font-family="Times,serif" font-size="14.00" fill="#000000">KnowledgeMap</text>
<polyline fill="none" stroke="#000000" points="170.9443,-244.5 303.9551,-244.5 "/>
<text text-anchor="start" x="178.9443" y="-229.3" font-family="Times,serif" font-size="14.00" fill="#000000">id :INTEGER</text>
<text text-anchor="start" x="178.9443" y="-215.3" font-family="Times,serif" font-size="14.00" fill="#000000">name :varchar</text>
<text text-anchor="start" x="178.9443" y="-201.3" font-family="Times,serif" font-size="14.00" fill="#000000">description :text</text>
<text text-anchor="start" x="178.9443" y="-187.3" font-family="Times,serif" font-size="14.00" fill="#000000">created_at :datetime</text>
<text text-anchor="start" x="178.9443" y="-173.3" font-family="Times,serif" font-size="14.00" fill="#000000">updated_at :datetime</text>
</g>
<!-- ApplicationRecord&#45;&gt;KnowledgeMap -->
<g id="edge2" class="edge">
<title>ApplicationRecord&#45;&gt;KnowledgeMap</title>
<path fill="none" stroke="#000000" d="M292.9981,-322.4693C285.3223,-307.8262 274.1126,-286.4415 263.7698,-266.7107"/>
</g>
<!-- Topic -->
<g id="node4" class="node">
<title>Topic</title>
<path fill="none" stroke="#000000" d="M210.1099,-.5C210.1099,-.5 358.7896,-.5 358.7896,-.5 364.7896,-.5 370.7896,-6.5 370.7896,-12.5 370.7896,-12.5 370.7896,-116.5 370.7896,-116.5 370.7896,-122.5 364.7896,-128.5 358.7896,-128.5 358.7896,-128.5 210.1099,-128.5 210.1099,-128.5 204.1099,-128.5 198.1099,-122.5 198.1099,-116.5 198.1099,-116.5 198.1099,-12.5 198.1099,-12.5 198.1099,-6.5 204.1099,-.5 210.1099,-.5"/>
<text text-anchor="middle" x="284.4497" y="-113.3" font-family="Times,serif" font-size="14.00" fill="#000000">Topic</text>
<polyline fill="none" stroke="#000000" points="198.1099,-106.5 370.7896,-106.5 "/>
<text text-anchor="start" x="206.1099" y="-91.3" font-family="Times,serif" font-size="14.00" fill="#000000">knowledge_map_id :integer</text>
<text text-anchor="start" x="206.1099" y="-77.3" font-family="Times,serif" font-size="14.00" fill="#000000">name :varchar</text>
<text text-anchor="start" x="206.1099" y="-63.3" font-family="Times,serif" font-size="14.00" fill="#000000">classification :varchar</text>
<text text-anchor="start" x="206.1099" y="-49.3" font-family="Times,serif" font-size="14.00" fill="#000000">id :INTEGER</text>
<text text-anchor="start" x="206.1099" y="-35.3" font-family="Times,serif" font-size="14.00" fill="#000000">topic_id :integer</text>
<text text-anchor="start" x="206.1099" y="-21.3" font-family="Times,serif" font-size="14.00" fill="#000000">created_at :datetime</text>
<text text-anchor="start" x="206.1099" y="-7.3" font-family="Times,serif" font-size="14.00" fill="#000000">updated_at :datetime</text>
</g>
<!-- ApplicationRecord&#45;&gt;Topic -->
<g id="edge4" class="edge">
<title>ApplicationRecord&#45;&gt;Topic</title>
<path fill="none" stroke="#000000" d="M305.9145,-322.461C308.5775,-307.6334 312.0326,-286.0431 313.4497,-267 316.7809,-222.2349 319.6759,-210.455 313.4497,-166 311.7339,-153.7491 308.9068,-140.902 305.6736,-128.6249"/>
</g>
<!-- KnowledgeMap&#45;&gt;Topic -->
<g id="edge1" class="edge">
<title>KnowledgeMap&#45;&gt;Topic</title>
<path fill="none" stroke="#f45b90" d="M255.3577,-158.5848C257.3853,-152.0274 259.4719,-145.2792 261.5522,-138.5514"/>
<ellipse fill="none" stroke="#f45b90" cx="254.1512" cy="-162.4868" rx="4" ry="4"/>
<polygon fill="#f45b90" stroke="#f45b90" points="261.6338,-138.2873 268.8872,-130.063 263.1109,-133.5105 264.588,-128.7336 264.588,-128.7336 264.588,-128.7336 263.1109,-133.5105 260.2888,-127.4042 261.6338,-138.2873 261.6338,-138.2873"/>
</g>
<!-- Topic&#45;&gt;Topic -->
<g id="edge3" class="edge">
<title>Topic&#45;&gt;Topic</title>
<path fill="none" stroke="#f7338d" d="M378.6008,-75.5636C384.9406,-73.0101 388.7896,-69.3222 388.7896,-64.5 388.7896,-60.1908 385.716,-56.7874 380.5379,-54.2898"/>
<ellipse fill="none" stroke="#f7338d" cx="374.641" cy="-76.7454" rx="4" ry="4"/>
<polygon fill="#f7338d" stroke="#f7338d" points="380.3135,-54.2166 372.2057,-46.8332 375.5608,-52.6636 370.808,-51.1107 370.808,-51.1107 370.808,-51.1107 375.5608,-52.6636 369.4104,-55.3881 380.3135,-54.2166 380.3135,-54.2166"/>
<text text-anchor="middle" x="424.5552" y="-60.3" font-family="Times,serif" font-size="14.00" fill="#000000">prerequisites</text>
</g>
</g>
</svg>
