<?xml version="1.0" encoding="UTF-8" standalone="no"?>
<!DOCTYPE svg PUBLIC "-//W3C//DTD SVG 1.1//EN"
 "http://www.w3.org/Graphics/SVG/1.1/DTD/svg11.dtd">
<!-- Generated by graphviz version 2.40.1 (20161225.0304)
 -->
<!-- Title: models_diagram Pages: 1 -->
<svg width="388pt" height="290pt"
 viewBox="0.00 0.00 387.85 290.00" xmlns="http://www.w3.org/2000/svg" xmlns:xlink="http://www.w3.org/1999/xlink">
<g id="graph0" class="graph" transform="scale(1 1) rotate(0) translate(4 286)">
<title>models_diagram</title>
<polygon fill="transparent" stroke="transparent" points="-4,4 -4,-286 383.8455,-286 383.8455,4 -4,4"/>
<!-- _diagram_info -->
<g id="node1" class="node">
<title>_diagram_info</title>
<text text-anchor="start" x="8" y="-267.6" font-family="Times,serif" font-size="13.00" fill="#000000">Models diagram</text>
<text text-anchor="start" x="8" y="-254.6" font-family="Times,serif" font-size="13.00" fill="#000000">Date: Jun 09 2017 &#45; 06:46</text>
<text text-anchor="start" x="8" y="-241.6" font-family="Times,serif" font-size="13.00" fill="#000000">Migration version: 20170608115929</text>
<text text-anchor="start" x="8" y="-228.6" font-family="Times,serif" font-size="13.00" fill="#000000">Generated by RailRoady 1.5.3</text>
<text text-anchor="start" x="8" y="-215.6" font-family="Times,serif" font-size="13.00" fill="#000000">http://railroady.prestonlee.com</text>
</g>
<!-- ApplicationRecord -->
<g id="node2" class="node">
<title>ApplicationRecord</title>
<ellipse fill="none" stroke="#000000" cx="302.4497" cy="-245.5" rx="77.2916" ry="18"/>
<text text-anchor="middle" x="302.4497" y="-241.3" font-family="Times,serif" font-size="14.00" fill="#000000">ApplicationRecord</text>
</g>
<!-- KnowledgeMap -->
<g id="node3" class="node">
<title>KnowledgeMap</title>
<path fill="none" stroke="#000000" d="M247.9443,-72.5C247.9443,-72.5 356.9551,-72.5 356.9551,-72.5 362.9551,-72.5 368.9551,-78.5 368.9551,-84.5 368.9551,-84.5 368.9551,-160.5 368.9551,-160.5 368.9551,-166.5 362.9551,-172.5 356.9551,-172.5 356.9551,-172.5 247.9443,-172.5 247.9443,-172.5 241.9443,-172.5 235.9443,-166.5 235.9443,-160.5 235.9443,-160.5 235.9443,-84.5 235.9443,-84.5 235.9443,-78.5 241.9443,-72.5 247.9443,-72.5"/>
<text text-anchor="middle" x="302.4497" y="-157.3" font-family="Times,serif" font-size="14.00" fill="#000000">KnowledgeMap</text>
<polyline fill="none" stroke="#000000" points="235.9443,-150.5 368.9551,-150.5 "/>
<text text-anchor="start" x="243.9443" y="-135.3" font-family="Times,serif" font-size="14.00" fill="#000000">id :INTEGER</text>
<text text-anchor="start" x="243.9443" y="-121.3" font-family="Times,serif" font-size="14.00" fill="#000000">name :varchar</text>
<text text-anchor="start" x="243.9443" y="-107.3" font-family="Times,serif" font-size="14.00" fill="#000000">description :text</text>
<text text-anchor="start" x="243.9443" y="-93.3" font-family="Times,serif" font-size="14.00" fill="#000000">created_at :datetime</text>
<text text-anchor="start" x="243.9443" y="-79.3" font-family="Times,serif" font-size="14.00" fill="#000000">updated_at :datetime</text>
</g>
<!-- ApplicationRecord&#45;&gt;KnowledgeMap -->
<g id="edge2" class="edge">
<title>ApplicationRecord&#45;&gt;KnowledgeMap</title>
<path fill="none" stroke="#000000" d="M302.4497,-227.3509C302.4497,-212.9167 302.4497,-192.0001 302.4497,-172.6397"/>
</g>
<!-- Topic -->
<g id="node4" class="node">
<title>Topic</title>
<ellipse fill="none" stroke="#000000" cx="302.4497" cy="-18" rx="30.2342" ry="18"/>
<text text-anchor="middle" x="302.4497" y="-13.8" font-family="Times,serif" font-size="14.00" fill="#000000">Topic</text>
</g>
<!-- KnowledgeMap&#45;&gt;Topic -->
<g id="edge1" class="edge">
<title>KnowledgeMap&#45;&gt;Topic</title>
<path fill="none" stroke="#bbfb1e" d="M302.4497,-64.1785C302.4497,-57.9652 302.4497,-51.8679 302.4497,-46.2447"/>
<ellipse fill="none" stroke="#bbfb1e" cx="302.4498" cy="-68.3925" rx="4" ry="4"/>
<polygon fill="#bbfb1e" stroke="#bbfb1e" points="302.4498,-46.1093 306.9497,-36.1092 302.4498,-41.1093 302.4497,-36.1093 302.4497,-36.1093 302.4497,-36.1093 302.4498,-41.1093 297.9497,-36.1093 302.4498,-46.1093 302.4498,-46.1093"/>
</g>
</g>
</svg>
