<?xml version="1.0" encoding="UTF-8" standalone="no"?>
<!DOCTYPE svg PUBLIC "-//W3C//DTD SVG 1.1//EN"
 "http://www.w3.org/Graphics/SVG/1.1/DTD/svg11.dtd">
<!-- Generated by graphviz version 2.40.1 (20161225.0304)
 -->
<!-- Title: models_diagram Pages: 1 -->
<svg width="388pt" height="225pt"
 viewBox="0.00 0.00 387.85 225.00" xmlns="http://www.w3.org/2000/svg" xmlns:xlink="http://www.w3.org/1999/xlink">
<g id="graph0" class="graph" transform="scale(1 1) rotate(0) translate(4 221)">
<title>models_diagram</title>
<polygon fill="transparent" stroke="transparent" points="-4,4 -4,-221 383.8455,-221 383.8455,4 -4,4"/>
<!-- _diagram_info -->
<g id="node1" class="node">
<title>_diagram_info</title>
<text text-anchor="start" x="8" y="-202.6" font-family="Times,serif" font-size="13.00" fill="#000000">Models diagram</text>
<text text-anchor="start" x="8" y="-189.6" font-family="Times,serif" font-size="13.00" fill="#000000">Date: Jun 09 2017 &#45; 06:46</text>
<text text-anchor="start" x="8" y="-176.6" font-family="Times,serif" font-size="13.00" fill="#000000">Migration version: 20170608115929</text>
<text text-anchor="start" x="8" y="-163.6" font-family="Times,serif" font-size="13.00" fill="#000000">Generated by RailRoady 1.5.3</text>
<text text-anchor="start" x="8" y="-150.6" font-family="Times,serif" font-size="13.00" fill="#000000">http://railroady.prestonlee.com</text>
</g>
<!-- ApplicationRecord -->
<g id="node2" class="node">
<title>ApplicationRecord</title>
<ellipse fill="none" stroke="#000000" cx="302.4497" cy="-180.5" rx="77.2916" ry="18"/>
<text text-anchor="middle" x="302.4497" y="-176.3" font-family="Times,serif" font-size="14.00" fill="#000000">ApplicationRecord</text>
</g>
<!-- KnowledgeMap -->
<g id="node3" class="node">
<title>KnowledgeMap</title>
<ellipse fill="none" stroke="#000000" cx="302.4497" cy="-90" rx="67.1684" ry="18"/>
<text text-anchor="middle" x="302.4497" y="-85.8" font-family="Times,serif" font-size="14.00" fill="#000000">KnowledgeMap</text>
</g>
<!-- ApplicationRecord&#45;&gt;KnowledgeMap -->
<g id="edge2" class="edge">
<title>ApplicationRecord&#45;&gt;KnowledgeMap</title>
<path fill="none" stroke="#000000" d="M302.4497,-162.186C302.4497,-146.4846 302.4497,-123.9803 302.4497,-108.2868"/>
</g>
<!-- Topic -->
<g id="node4" class="node">
<title>Topic</title>
<ellipse fill="none" stroke="#000000" cx="302.4497" cy="-18" rx="30.2342" ry="18"/>
<text text-anchor="middle" x="302.4497" y="-13.8" font-family="Times,serif" font-size="14.00" fill="#000000">Topic</text>
</g>
<!-- KnowledgeMap&#45;&gt;Topic -->
<g id="edge1" class="edge">
<title>KnowledgeMap&#45;&gt;Topic</title>
<path fill="none" stroke="#2b2ff1" d="M302.4497,-63.8144C302.4497,-58.2775 302.4497,-52.4053 302.4497,-46.7785"/>
<ellipse fill="none" stroke="#2b2ff1" cx="302.4498" cy="-67.8314" rx="4" ry="4"/>
<polygon fill="#2b2ff1" stroke="#2b2ff1" points="302.4498,-46.4133 306.9497,-36.4132 302.4498,-41.4133 302.4497,-36.4133 302.4497,-36.4133 302.4497,-36.4133 302.4498,-41.4133 297.9497,-36.4133 302.4498,-46.4133 302.4498,-46.4133"/>
</g>
</g>
</svg>
