<?xml version="1.0" encoding="UTF-8" standalone="no"?>
<!DOCTYPE svg PUBLIC "-//W3C//DTD SVG 1.1//EN"
 "http://www.w3.org/Graphics/SVG/1.1/DTD/svg11.dtd">
<!-- Generated by graphviz version 2.40.1 (20161225.0304)
 -->
<!-- Title: models_diagram Pages: 1 -->
<svg width="412pt" height="227pt"
 viewBox="0.00 0.00 412.10 227.00" xmlns="http://www.w3.org/2000/svg" xmlns:xlink="http://www.w3.org/1999/xlink">
<g id="graph0" class="graph" transform="scale(1 1) rotate(0) translate(4 223)">
<title>models_diagram</title>
<polygon fill="transparent" stroke="transparent" points="-4,4 -4,-223 408.0978,-223 408.0978,4 -4,4"/>
<!-- _diagram_info -->
<g id="node1" class="node">
<title>_diagram_info</title>
<text text-anchor="start" x="8" y="-204.6" font-family="Times,serif" font-size="13.00" fill="#000000">Models diagram</text>
<text text-anchor="start" x="8" y="-191.6" font-family="Times,serif" font-size="13.00" fill="#000000">Date: Jun 09 2017 &#45; 08:46</text>
<text text-anchor="start" x="8" y="-178.6" font-family="Times,serif" font-size="13.00" fill="#000000">Migration version: 20170608115929</text>
<text text-anchor="start" x="8" y="-165.6" font-family="Times,serif" font-size="13.00" fill="#000000">Generated by RailRoady 1.5.3</text>
<text text-anchor="start" x="8" y="-152.6" font-family="Times,serif" font-size="13.00" fill="#000000">http://railroady.prestonlee.com</text>
</g>
<!-- ApplicationRecord -->
<g id="node2" class="node">
<title>ApplicationRecord</title>
<ellipse fill="none" stroke="#000000" cx="302.4497" cy="-182.5" rx="77.2916" ry="18"/>
<text text-anchor="middle" x="302.4497" y="-178.3" font-family="Times,serif" font-size="14.00" fill="#000000">ApplicationRecord</text>
</g>
<!-- KnowledgeMap -->
<g id="node3" class="node">
<title>KnowledgeMap</title>
<ellipse fill="none" stroke="#000000" cx="237.4497" cy="-91" rx="67.1684" ry="18"/>
<text text-anchor="middle" x="237.4497" y="-86.8" font-family="Times,serif" font-size="14.00" fill="#000000">KnowledgeMap</text>
</g>
<!-- ApplicationRecord&#45;&gt;KnowledgeMap -->
<g id="edge2" class="edge">
<title>ApplicationRecord&#45;&gt;KnowledgeMap</title>
<path fill="none" stroke="#000000" d="M289.6078,-164.4225C278.1384,-148.2772 261.437,-124.7667 250.0438,-108.7286"/>
</g>
<!-- Topic -->
<g id="node4" class="node">
<title>Topic</title>
<ellipse fill="none" stroke="#000000" cx="284.4497" cy="-18" rx="30.2342" ry="18"/>
<text text-anchor="middle" x="284.4497" y="-13.8" font-family="Times,serif" font-size="14.00" fill="#000000">Topic</text>
</g>
<!-- ApplicationRecord&#45;&gt;Topic -->
<g id="edge4" class="edge">
<title>ApplicationRecord&#45;&gt;Topic</title>
<path fill="none" stroke="#000000" d="M307.9817,-164.4047C313.8416,-142.4708 321.2528,-104.5291 313.4497,-73 310.0784,-59.3779 302.6527,-45.4077 296.1598,-34.9557"/>
</g>
<!-- KnowledgeMap&#45;&gt;Topic -->
<g id="edge1" class="edge">
<title>KnowledgeMap&#45;&gt;Topic</title>
<path fill="none" stroke="#4a4e43" d="M253.4893,-66.0875C258.154,-58.8423 263.2562,-50.9175 267.9488,-43.6291"/>
<ellipse fill="none" stroke="#4a4e43" cx="251.2331" cy="-69.5918" rx="4" ry="4"/>
<polygon fill="#4a4e43" stroke="#4a4e43" points="268.1963,-43.2445 277.3934,-37.2725 270.9031,-39.0405 273.6098,-34.8365 273.6098,-34.8365 273.6098,-34.8365 270.9031,-39.0405 269.8262,-32.4004 268.1963,-43.2445 268.1963,-43.2445"/>
</g>
<!-- Topic&#45;&gt;Topic -->
<g id="edge3" class="edge">
<title>Topic&#45;&gt;Topic</title>
<path fill="none" stroke="#d7c853" d="M320.7764,-24.4241C327.6841,-23.6526 332.5666,-21.5112 332.5666,-18 332.5666,-14.8623 328.6677,-12.8185 322.9088,-11.8686"/>
<ellipse fill="none" stroke="#d7c853" cx="316.6185" cy="-24.5768" rx="4" ry="4"/>
<polygon fill="#d7c853" stroke="#d7c853" points="322.6046,-11.8512 312.8798,-6.7838 317.6129,-11.5638 312.6212,-11.2764 312.6212,-11.2764 312.6212,-11.2764 317.6129,-11.5638 312.3625,-15.7689 322.6046,-11.8512 322.6046,-11.8512"/>
<text text-anchor="middle" x="368.3322" y="-13.8" font-family="Times,serif" font-size="14.00" fill="#000000">prerequisites</text>
</g>
</g>
</svg>
